#!OML:ASF H:\Punching\Project 1\Capture day 1\Session 1\female.ASF
:FULLY-SPECIFIED
:DEGREES
1660
root 1.5481 15.4205 8.87157 14.6898 -0.149999 -0.562048
lowerback 0.803546 -0.197766 -2.43823
upperback -5.33975 -0.349971 0.273835
thorax -5.97113 -0.0465178 1.67083
lowerneck -11.7845 5.55974 12.5436
upperneck 26.845 7.33299 -8.26913
head 11.4561 3.6536 -4.18774
rclavicle 3.6154e-015 2.98177e-015
rhumerus -33.7121 4.85544 -62.2911
rradius 59.5825
rwrist -18.5203
rhand -15.1556 -0.715794
rfingers 7.12502
rthumb 11.0147 -30.4068
lclavicle 3.6154e-015 2.98177e-015
lhumerus -38.5245 -22.5299 87.0564
lradius 108.038
lwrist 1.07763
lhand -17.8087 11.7017
lfingers 7.12502
lthumb 8.45497 41.5125
rfemur -41.5676 6.67283 -2.51901
rtibia 25.285
rfoot 4.89536 -16.4531
rtoes -5.19302
lfemur 4.90075 -8.15715 -16.4414
ltibia -6.36111e-015
lfoot -13.7549 22.9055
ltoes -9.73914
1661
root 1.45863 15.4084 8.94358 14.7442 0.470032 -0.441016
lowerback 0.919736 -0.236427 -2.5571
upperback -5.29989 -0.410979 0.233806
thorax -5.99288 -0.0719499 1.70004
lowerneck -11.9059 5.4706 12.3836
upperneck 26.7251 7.20515 -8.21034
head 11.4079 3.58294 -4.15201
rclavicle -8.32411e-016 7.95139e-016
rhumerus -34.0488 4.19233 -62.1243
rradius 60.2199
rwrist -18.4749
rhand -16.7194 0.151934
rfingers 7.12502
rthumb 9.50611 -29.6136
lclavicle -8.32411e-016 7.95139e-016
lhumerus -38.7164 -22.9104 87.5712
lradius 109.028
lwrist 0.749513
lhand -18.0564 11.3966
lfingers 7.12502
lthumb 8.21594 41.2168
rfemur -41.7265 7.07282 -3.24545
rtibia 24.8777
rfoot 5.84457 -16.2872
rtoes -5.73237
lfemur 5.00306 -8.54904 -16.079
ltibia 1.27222e-014
lfoot -13.8808 22.8276
ltoes -10.3651
1662
root 1.36561 15.3936 9.01775 14.8091 1.10962 -0.322778
lowerback 1.04097 -0.271468 -2.6719
upperback -5.26129 -0.467287 0.196467
thorax -6.01899 -0.0950902 1.72968
lowerneck -12.0319 5.37895 12.2138
upperneck 26.5923 7.07724 -8.15803
head 11.356 3.51041 -4.11673
rclavicle 7.96381e-015 5.56597e-015
rhumerus -34.4445 3.46719 -61.9783
rradius 61.0666
rwrist -18.4554
rhand -18.4886 1.03618
rfingers 7.12502
rthumb 7.79877 -28.8
lclavicle 7.96381e-015 5.56597e-015
lhumerus -38.9077 -23.3129 88.1076
lradius 110.032
lwrist 0.452107
lhand -18.3727 11.0789
lfingers 7.12502
lthumb 7.91061 40.9109
rfemur -41.8675 7.20898 -3.75194
rtibia 24.6552
rfoot 6.71654 -15.8987
rtoes -6.19522
lfemur 5.09578 -8.95896 -15.6887
ltibia -3.18055e-015
lfoot -14.0049 22.7524
ltoes -11.0161
1663
root 1.26863 15.3759 9.09396 14.8895 1.76282 -0.203859
lowerback 1.16071 -0.300464 -2.79356
upperback -5.22254 -0.515839 0.162869
thorax -6.04431 -0.113941 1.76669
lowerneck -12.162 5.28522 12.0343
upperneck 26.4406 6.95033 -8.1147
head 11.2981 3.43621 -4.08256
rclavicle -2.3233e-015 -3.97569e-015
rhumerus -34.8956 2.67699 -61.8504
rradius 62.1546
rwrist -18.4852
rhand -20.3222 1.93633
rfingers 7.12502
rthumb 6.02875 -27.9579
lclavicle -2.3233e-015 -3.97569e-015
lhumerus -39.0884 -23.7402 88.6616
lradius 111.047
lwrist 0.168802
lhand -18.7557 10.7561
lfingers 7.12502
lthumb 7.54098 40.6016
rfemur -41.9985 7.08406 -4.03551
rtibia 24.6149
rfoot 7.58822 -15.2816
rtoes -6.54822
lfemur 5.17232 -9.38146 -15.2722
ltibia -1.59028e-014
lfoot -14.1374 22.6754
ltoes -11.6893
1664
root 1.16778 15.3553 9.1726 14.9799 2.42581 -0.0847417
lowerback 1.28117 -0.322201 -2.92119
upperback -5.18301 -0.555005 0.133857
thorax -6.06957 -0.127714 1.81134
lowerneck -12.2895 5.18885 11.8434
upperneck 26.2686 6.82477 -8.08053
head 11.2325 3.36051 -4.04932
rclavicle -2.00027e-015 -1.98785e-015
rhumerus -35.4 1.82722 -61.7399
rradius 63.5082
rwrist -18.5779
rhand -22.1354 2.75055
rfingers 7.12502
rthumb 4.27799 -27.1862
lclavicle -2.00027e-015 -1.98785e-015
lhumerus -39.2543 -24.1887 89.2267
lradius 112.061
lwrist -0.121832
lhand -19.1793 10.4284
lfingers 7.12502
lthumb 7.13212 40.2882
rfemur -42.117 6.72531 -4.1047
rtibia 24.7596
rfoot 8.50994 -14.4174
rtoes -6.85132
lfemur 5.2415 -9.81289 -14.8315
ltibia 3.18055e-014
lfoot -14.2821 22.5974
ltoes -12.3816
1665
root 1.0623 15.3316 9.25263 15.1035 3.11547 0.046512
lowerback 1.39258 -0.344024 -3.0731
upperback -5.14963 -0.595205 0.110552
thorax -6.09589 -0.140557 1.87565
lowerneck -12.4187 5.09181 11.6404
upperneck 26.0787 6.70304 -8.05491
head 11.1613 3.28435 -4.01625
rclavicle 5.96354e-016 1.98785e-016
rhumerus -35.9388 0.923451 -61.647
rradius 65.1187
rwrist -18.7491
rhand -23.8076 3.49037
rfingers 7.12502
rthumb 2.66315 -26.4728
lclavicle 5.96354e-016 1.98785e-016
lhumerus -39.4 -24.6508 89.7954
lradius 113.074
lwrist -0.425594
lhand -19.621 10.0952
lfingers 7.12502
lthumb 6.70568 39.969
rfemur -42.2424 6.15607 -3.99856
rtibia 25.0913
rfoot 9.37107 -13.4058
rtoes -7.41684
lfemur 5.26822 -10.27 -14.3646
ltibia -9.54166e-015
lfoot -14.4302 22.5163
ltoes -13.0808
1666
root 0.951982 15.3046 9.33418 15.26 3.83787 0.189254
lowerback 1.49874 -0.367699 -3.24735
upperback -5.12654 -0.639018 0.0921552
thorax -6.12965 -0.153689 1.95793
lowerneck -12.543 4.99283 11.4348
upperneck 25.875 6.58347 -8.04306
head 11.0852 3.20759 -3.98738
rclavicle 1.45113e-014 1.59028e-015
rhumerus -36.495 -0.0177025 -61.5814
rradius 66.9514
rwrist -19.0245
rhand -25.222 4.17524
rfingers 7.12502
rthumb 1.29719 -25.8006
lclavicle 1.45113e-014 1.59028e-015
lhumerus -39.5356 -25.1225 90.3639
lradius 114.086
lwrist -0.74845
lhand -20.0598 9.76814
lfingers 7.12502
lthumb 6.28213 39.655
rfemur -42.3728 5.38628 -3.72042
rtibia 25.6181
rfoot 9.99282 -12.3636
rtoes -8.11886
lfemur 5.25055 -10.7575 -13.8677
ltibia -1.90833e-014
lfoot -14.5738 22.4415
ltoes -13.7906
1667
root 0.836828 15.2738 9.41751 15.4442 4.596 0.33828
lowerback 1.6036 -0.39519 -3.43742
upperback -5.11468 -0.688956 0.0797892
thorax -6.17394 -0.16853 2.05595
lowerneck -12.6553 4.89036 11.227
upperneck 25.6625 6.46364 -8.04118
head 11.0042 3.1298 -3.96186
rclavicle 3.85145e-015 9.74045e-015
rhumerus -37.046 -0.97442 -61.5531
rradius 68.9586
rwrist -19.397
rhand -26.3673 4.80828
rfingers 7.12502
rthumb 0.191027 -25.1714
lclavicle 3.85145e-015 9.74045e-015
lhumerus -39.6624 -25.6034 90.9227
lradius 115.089
lwrist -1.08121
lhand -20.4826 9.44418
lfingers 7.12502
lthumb 5.87387 39.3428
rfemur -42.5089 4.43675 -3.27878
rtibia 26.3503
rfoot 10.0805 -11.4125
rtoes -8.91892
lfemur 5.19436 -11.2764 -13.3335
ltibia -2.22639e-014
lfoot -14.7206 22.3723
ltoes -14.5106
1668
root 0.717059 15.2391 9.50272 15.653 5.39879 0.494117
lowerback 1.71348 -0.42782 -3.63479
upperback -5.11888 -0.74706 0.0688301
thorax -6.23743 -0.186339 2.16038
lowerneck -12.7486 4.78031 11.0232
upperneck 25.4509 6.33654 -8.04588
head 10.92 3.04903 -3.94077
rclavicle 2.65874e-015 2.5842e-015
rhumerus -37.5814 -1.92117 -61.5776
rradius 71.0888
rwrist -19.8593
rhand -27.2692 5.40677
rfingers 7.12502
rthumb -0.680066 -24.5719
lclavicle 2.65874e-015 2.5842e-015
lhumerus -39.7954 -26.0976 91.4748
lradius 116.084
lwrist -1.41189
lhand -20.8841 9.12679
lfingers 7.12502
lthumb 5.48626 39.0358
rfemur -42.6478 3.306 -2.67988
rtibia 27.2965
rfoot 9.5004 -10.5561
rtoes -9.91172
lfemur 5.10033 -11.8346 -12.7598
ltibia -9.54166e-015
lfoot -14.8696 22.311
ltoes -15.2196
